<?xml version="1.0" encoding="UTF-8"?>
<!DOCTYPE svg PUBLIC "-//W3C//DTD SVG 1.1//EN" "http://www.w3.org/Graphics/SVG/1.1/DTD/svg11.dtd">
<svg xmlns="http://www.w3.org/2000/svg" version="1.1" width="443px" height="81px" style="shape-rendering:geometricPrecision; text-rendering:geometricPrecision; image-rendering:optimizeQuality; fill-rule:evenodd; clip-rule:evenodd" xmlns:xlink="http://www.w3.org/1999/xlink">
<g><path style="opacity:1" fill="#fcfdfe" d="M -0.5,-0.5 C 147.167,-0.5 294.833,-0.5 442.5,-0.5C 442.5,26.5 442.5,53.5 442.5,80.5C 294.833,80.5 147.167,80.5 -0.5,80.5C -0.5,53.5 -0.5,26.5 -0.5,-0.5 Z"/></g>
<g><path style="opacity:1" fill="#114682" d="M 2.5,2.5 C 11.6749,1.17783 21.0082,1.17783 30.5,2.5C 36.7248,16.6967 43.2248,30.6967 50,44.5C 53.1088,40.3145 54.1088,35.6479 53,30.5C 49.4445,20.6559 45.6112,10.9893 41.5,1.5C 50.5246,1.16849 59.5246,1.50182 68.5,2.5C 74.7265,16.6201 81.2265,30.6201 88,44.5C 89.3848,43.4495 90.3848,42.1161 91,40.5C 91.6667,35.8333 91.6667,31.1667 91,26.5C 88.3678,21.1863 85.7011,15.853 83,10.5C 82.2716,7.76954 82.4383,5.10287 83.5,2.5C 92.8333,1.16667 102.167,1.16667 111.5,2.5C 100.211,28.047 88.5441,53.3804 76.5,78.5C 69.7437,65.3202 63.2437,51.9869 57,38.5C 50.3931,52.0467 44.0598,65.7134 38,79.5C 26.0477,53.7735 14.2144,28.1068 2.5,2.5 Z"/></g>
<g><path style="opacity:1" fill="#124782" d="M 138.5,21.5 C 141.807,21.0632 144.807,21.7298 147.5,23.5C 148.125,29.1458 148.792,34.8125 149.5,40.5C 162.882,37.0546 170.548,42.3879 172.5,56.5C 170.482,70.7407 162.649,76.074 149,72.5C 144.883,75.0071 140.883,75.0071 137,72.5C 136.333,56.1667 136.333,39.8333 137,23.5C 137.717,22.9558 138.217,22.2891 138.5,21.5 Z"/></g>
<g><path style="opacity:1" fill="#257ee7" d="M 314.5,26.5 C 323.842,25.1882 327.176,29.1882 324.5,38.5C 334.239,37.3864 337.239,41.2198 333.5,50C 330.518,50.498 327.518,50.6646 324.5,50.5C 324.5,54.5 324.5,58.5 324.5,62.5C 332.322,62.2741 334.656,65.9407 331.5,73.5C 326.315,75.0167 321.315,74.5167 316.5,72C 314.959,70.4207 313.792,68.5873 313,66.5C 312.501,61.1771 312.334,55.8437 312.5,50.5C 307.761,51.5929 305.761,49.7596 306.5,45C 305.93,40.4043 307.93,38.2376 312.5,38.5C 311.99,34.1869 312.657,30.1869 314.5,26.5 Z"/></g>
<g><path style="opacity:1" fill="#164883" d="M 109.5,37.5 C 121.779,35.2944 129.446,40.1278 132.5,52C 132.27,54.6998 131.27,57.0332 129.5,59C 122.914,60.0914 116.247,60.9247 109.5,61.5C 111.366,63.8908 113.866,64.8908 117,64.5C 120.268,64.0872 123.434,63.5872 126.5,63C 132.274,68.5736 131.274,72.5736 123.5,75C 104.327,77.8234 95.4939,69.6567 97,50.5C 99.3531,44.3154 103.52,39.982 109.5,37.5 Z"/></g>
<g><path style="opacity:1" fill="#2980e8" d="M 178.5,38.5 C 182.721,37.8076 186.387,38.8076 189.5,41.5C 195.655,37.1436 201.321,37.8102 206.5,43.5C 216.565,35.3715 224.065,37.3715 229,49.5C 229.8,57.2163 229.633,64.8829 228.5,72.5C 224.358,75.4072 220.524,75.0738 217,71.5C 216.667,65.1667 216.333,58.8333 216,52.5C 213.358,50.9414 211.025,51.2747 209,53.5C 208.667,59.8333 208.333,66.1667 208,72.5C 205.159,74.5037 201.993,75.0037 198.5,74C 197.874,73.2496 197.374,72.4162 197,71.5C 196.667,65.5 196.333,59.5 196,53.5C 193.667,50.8333 191.333,50.8333 189,53.5C 188.667,59.8333 188.333,66.1667 188,72.5C 184.333,75.1667 180.667,75.1667 177,72.5C 176.333,61.8333 176.333,51.1667 177,40.5C 177.717,39.9558 178.217,39.2891 178.5,38.5 Z"/></g>
<g><path style="opacity:1" fill="#93c0f3" d="M 253.5,39.5 C 249.055,39.9316 244.721,40.9316 240.5,42.5C 244.231,38.6629 248.565,37.6629 253.5,39.5 Z"/></g>
<g><path style="opacity:1" fill="#287fe8" d="M 351.5,37.5 C 365.357,35.875 372.524,41.875 373,55.5C 372.535,56.9308 371.701,58.0975 370.5,59C 363.941,60.2554 357.274,60.9221 350.5,61C 351.5,62 352.5,63 353.5,64C 358.625,64.5388 363.625,64.2055 368.5,63C 372.842,67.2481 372.508,70.9147 367.5,74C 345.044,78.8739 335.544,70.0405 339,47.5C 342.191,42.8366 346.358,39.5032 351.5,37.5 Z"/></g>
<g><path style="opacity:1" fill="#227de7" d="M 379.5,38.5 C 383.603,37.7691 387.103,38.7691 390,41.5C 392.133,39.1465 394.8,38.1465 398,38.5C 404.097,38.5285 406.097,41.5285 404,47.5C 402.14,51.6758 399.14,52.6758 395,50.5C 392.966,50.3536 391.299,51.0203 390,52.5C 389.667,59.1667 389.333,65.8333 389,72.5C 385.333,75.1667 381.667,75.1667 378,72.5C 377.333,61.8333 377.333,51.1667 378,40.5C 378.717,39.9558 379.217,39.2891 379.5,38.5 Z"/></g>
<g><path style="opacity:1" fill="#267ee8" d="M 414.5,38.5 C 419.844,38.334 425.177,38.5006 430.5,39C 436.364,41.1357 437.031,44.469 432.5,49C 429.181,48.8433 425.848,48.3433 422.5,47.5C 418.856,47.7139 418.523,48.8806 421.5,51C 428.438,50.8807 433.605,53.714 437,59.5C 438.683,68.1539 435.183,73.3206 426.5,75C 419.56,76.5272 413.393,75.0272 408,70.5C 406.959,67.3637 407.793,64.8637 410.5,63C 415.405,63.7504 420.405,64.5837 425.5,65.5C 425.5,64.5 425.5,63.5 425.5,62.5C 413.432,62.273 407.932,56.273 409,44.5C 410.36,41.9774 412.193,39.9774 414.5,38.5 Z"/></g>
<g><path style="opacity:1" fill="#227de7" d="M 237.5,45.5 C 243.473,46.697 248.473,45.197 252.5,41C 253.448,40.5172 254.448,40.3505 255.5,40.5C 257.1,41.512 258.434,41.012 259.5,39C 262.993,37.9963 266.159,38.4963 269,40.5C 269.667,51.1667 269.667,61.8333 269,72.5C 264.659,75.4485 260.659,75.1151 257,71.5C 246.544,76.4599 238.877,73.4599 234,62.5C 233.333,58.5 233.333,54.5 234,50.5C 234.697,48.4156 235.864,46.7489 237.5,45.5 Z"/></g>
<g><path style="opacity:1" fill="#68a5ee" d="M 299.5,40.5 C 292.807,41.6834 286.141,41.6834 279.5,40.5C 279.918,39.7784 280.584,39.2784 281.5,39C 286.833,38.3333 292.167,38.3333 297.5,39C 298.416,39.2784 299.082,39.7784 299.5,40.5 Z"/></g>
<g><path style="opacity:1" fill="#287fe8" d="M 279.5,40.5 C 286.141,41.6834 292.807,41.6834 299.5,40.5C 301.252,40.4176 302.252,41.2509 302.5,43C 301.94,46.3105 300.106,48.4771 297,49.5C 293.775,47.7386 290.275,47.0719 286.5,47.5C 286.281,48.675 286.614,49.675 287.5,50.5C 302.567,51.4896 306.901,58.6563 300.5,72C 292.179,76.6641 283.846,76.6641 275.5,72C 272.871,68.8006 273.204,65.8006 276.5,63C 278.5,62.3333 280.5,62.3333 282.5,63C 285.733,65.5906 289.066,65.9239 292.5,64C 289.063,62.1426 285.396,60.8093 281.5,60C 276.058,56.6842 273.891,51.8509 275,45.5C 275.996,43.3395 277.496,41.6728 279.5,40.5 Z"/></g>
<g><path style="opacity:1" fill="#408eea" d="M 253.5,39.5 C 254.492,39.3284 255.158,39.6618 255.5,40.5C 254.448,40.3505 253.448,40.5172 252.5,41C 248.473,45.197 243.473,46.697 237.5,45.5C 238.167,44.1667 239.167,43.1667 240.5,42.5C 244.721,40.9316 249.055,39.9316 253.5,39.5 Z"/></g>
<g><path style="opacity:1" fill="#ebeff4" d="M 113.5,48.5 C 117.73,47.8313 119.563,49.498 119,53.5C 115.943,54.4505 112.777,54.7839 109.5,54.5C 109.657,51.6824 110.991,49.6824 113.5,48.5 Z"/></g>
<g><path style="opacity:1" fill="#eff5fd" d="M 354.5,48.5 C 359.123,47.4082 360.956,49.0748 360,53.5C 356.875,54.7874 353.709,54.7874 350.5,53.5C 351.857,51.8144 353.19,50.1477 354.5,48.5 Z"/></g>
<g><path style="opacity:1" fill="#edf1f6" d="M 151.5,50.5 C 157.17,50.3392 160.003,53.0058 160,58.5C 156.146,63.7567 152.479,63.7567 149,58.5C 148.388,55.3893 149.221,52.7226 151.5,50.5 Z"/></g>
<g><path style="opacity:1" fill="#f3f7fe" d="M 248.5,50.5 C 256.957,51.437 258.624,55.2703 253.5,62C 247.242,62.7015 244.742,59.8682 246,53.5C 247.045,52.6266 247.878,51.6266 248.5,50.5 Z"/></g>
</svg>
